<svg width="811" height="255" viewBox="0 0 811 255" fill="none" xmlns="http://www.w3.org/2000/svg">
<rect x="1" y="158" width="120" height="30" rx="5" fill="#00D1FF"/>
<rect x="1" y="113" width="120" height="30" rx="5" fill="#FF00F5"/>
<rect x="1.00001" y="68" width="120" height="30" rx="5" fill="#FFE600"/>
<path d="M215.659 94.878L220.861 89.387C224.907 85.1483 229.05 81.584 233.288 78.694C237.72 75.804 242.536 74.1663 247.738 73.781C253.904 73.203 259.009 74.359 263.055 77.249C267.101 79.9463 270.473 84.185 273.17 89.965C277.602 101.332 278.083 113.47 274.615 126.379C270.762 143.912 262.67 158.554 250.339 170.307C245.137 175.509 239.55 179.362 233.577 181.867C227.605 184.564 221.439 184.95 215.081 183.023C213.925 182.638 212.673 182.156 211.324 181.578C210.168 181.193 208.916 180.807 207.567 180.422C207.375 181.385 207.182 182.349 206.989 183.312C206.797 184.275 206.7 185.239 206.7 186.202L201.498 227.818C201.306 229.937 200.92 232.153 200.342 234.465C199.764 236.777 199.186 238.993 198.608 241.112C197.838 245.158 195.718 248.433 192.25 250.938C188.975 253.443 186.085 254.502 183.58 254.117C181.076 253.732 179.149 251.805 177.8 248.337C176.452 244.869 175.585 241.112 175.199 237.066C174.236 227.24 174.043 217.318 174.621 207.299C175.199 197.28 175.97 187.165 176.933 176.954C177.897 165.972 178.956 154.99 180.112 144.008C181.268 133.026 182.617 122.044 184.158 111.062C184.736 107.016 185.507 102.97 186.47 98.924C187.434 94.6853 188.493 90.6393 189.649 86.786C192.539 76.382 198.512 71.758 207.567 72.914C210.265 73.2993 212.095 74.1663 213.058 75.515C214.214 76.8637 214.985 78.983 215.37 81.873C215.756 83.9923 215.852 86.1117 215.659 88.231C215.659 90.1577 215.659 92.3733 215.659 94.878ZM212.48 132.448C212.288 133.219 212.095 134.375 211.902 135.916C211.71 137.457 211.517 139.095 211.324 140.829C211.132 142.37 210.939 143.815 210.746 145.164C210.746 146.513 210.746 147.38 210.746 147.765C210.554 148.728 210.361 149.595 210.168 150.366C209.976 150.944 209.879 151.715 209.879 152.678C209.687 154.99 209.783 156.724 210.168 157.88C210.746 158.843 211.999 159.71 213.925 160.481C216.815 161.444 219.513 161.637 222.017 161.059C224.522 160.288 226.834 159.036 228.953 157.302C231.073 155.568 232.999 153.545 234.733 151.233C236.66 148.728 238.394 146.416 239.935 144.297C241.669 141.6 243.307 137.939 244.848 133.315C246.582 128.498 247.738 123.682 248.316 118.865C248.894 114.048 248.798 109.617 248.027 105.571C247.257 101.525 245.426 98.8277 242.536 97.479C237.912 95.3597 233.77 96.323 230.109 100.369C225.678 104.8 221.728 109.424 218.26 114.241C214.985 119.058 213.058 125.127 212.48 132.448ZM364.919 153.545C365.497 157.398 364.919 161.059 363.185 164.527C357.983 173.582 351.432 181.096 343.533 187.069C338.138 191.5 332.069 192.175 325.326 189.092C321.28 186.78 317.812 183.89 314.922 180.422C312.224 176.954 309.912 173.197 307.986 169.151C306.252 164.912 304.903 160.577 303.94 156.146C302.976 151.522 302.398 146.994 302.206 142.563C301.82 135.049 301.82 127.631 302.206 120.31C302.591 112.796 303.554 105.282 305.096 97.768C306.637 90.0613 308.467 81.7767 310.587 72.914C312.899 63.8587 315.692 55.0923 318.968 46.615C322.436 37.945 326.482 29.9493 331.106 22.628C335.922 15.3067 341.606 9.43033 348.157 4.99899C350.661 3.45766 353.07 2.30165 355.382 1.53099C357.886 0.760328 360.487 0.567664 363.185 0.952993C368.387 1.91632 372.433 5.19166 375.323 10.779C378.213 16.3663 379.465 22.628 379.08 29.564C378.502 36.6927 377.249 45.17 375.323 54.996C373.589 64.822 370.891 74.648 367.231 84.474C363.57 94.1073 358.946 103.066 353.359 111.351C347.771 119.636 341.028 125.801 333.129 129.847C332.936 134.856 332.84 139.769 332.84 144.586C332.84 149.403 333.61 154.027 335.152 158.458C336.115 161.926 337.945 164.238 340.643 165.394C343.34 166.357 346.326 165.972 349.602 164.238C350.95 163.275 352.299 162.215 353.648 161.059C355.189 159.71 356.634 158.362 357.983 157.013C359.139 156.05 360.198 155.183 361.162 154.412C362.125 153.449 363.377 153.16 364.919 153.545ZM334.863 107.883C338.138 105.378 340.835 102.681 342.955 99.791C345.074 96.901 347.001 93.722 348.735 90.254C352.01 82.9327 354.804 75.515 357.116 68.001C359.62 60.487 361.354 52.684 362.318 44.592C362.703 41.8947 362.992 39.101 363.185 36.211C363.57 33.321 363.955 30.3347 364.341 27.252C364.533 26.674 364.437 25.9997 364.052 25.229C363.666 24.2657 363.281 23.6877 362.896 23.495C362.51 23.3023 361.932 23.495 361.162 24.073C360.584 24.4583 360.102 24.8437 359.717 25.229C356.056 28.697 352.781 33.899 349.891 40.835C347.193 47.771 344.785 55.1887 342.666 63.088C340.739 70.7947 339.101 78.3087 337.753 85.63C336.597 92.7587 335.826 98.346 335.441 102.392L334.863 107.883ZM418.384 153.545C418.191 156.82 418.769 159.325 420.118 161.059C421.466 162.793 423.2 164.142 425.32 165.105C429.173 167.224 433.893 167.513 439.481 165.972C444.297 164.623 448.729 162.6 452.775 159.903C457.013 157.013 461.156 153.93 465.202 150.655C466.55 149.692 467.803 148.728 468.959 147.765C470.115 146.609 471.271 145.646 472.427 144.875C473.775 143.912 475.124 143.141 476.473 142.563C477.821 141.985 479.074 141.407 480.23 140.829C481.193 142.563 481.482 144.104 481.097 145.453C480.904 146.609 480.615 147.861 480.23 149.21C479.652 150.173 478.977 151.233 478.207 152.389C477.629 153.352 476.858 154.316 475.895 155.279C466.647 166.646 456.339 175.605 444.972 182.156C440.733 184.853 436.494 186.684 432.256 187.647C428.017 188.803 423.586 189.092 418.962 188.514C414.338 187.743 410.003 186.009 405.957 183.312C402.103 180.615 398.828 177.147 396.131 172.908C393.433 168.669 391.507 163.756 390.351 158.169C389.387 152.582 389.484 146.609 390.64 140.251C393.144 126.186 397.479 113.663 403.645 102.681C410.003 91.699 418.576 82.3547 429.366 74.648C431.678 73.1067 434.086 71.758 436.591 70.602C439.095 69.446 441.696 68.3863 444.394 67.423C449.403 65.4963 454.027 65.111 458.266 66.267C462.697 67.423 466.454 70.4093 469.537 75.226C475.702 84.474 476.087 95.3597 470.693 107.883C469.729 109.617 468.766 111.351 467.803 113.085C466.839 114.626 465.78 116.168 464.624 117.709C452.871 134.086 438.71 145.453 422.141 151.811C421.563 152.004 420.888 152.293 420.118 152.678C419.54 152.871 418.962 153.16 418.384 153.545ZM419.54 134.471C422.815 133.7 426.187 132.255 429.655 130.136C433.123 127.824 436.398 125.223 439.481 122.333C442.756 119.443 445.646 116.457 448.151 113.374C450.655 110.291 452.582 107.401 453.931 104.704C455.472 102.777 456.339 100.851 456.532 98.924C456.917 96.8047 456.628 95.3597 455.665 94.589C454.316 93.433 452.967 93.2403 451.619 94.011C450.463 94.589 449.21 95.2633 447.862 96.034C445.164 97.5753 442.371 99.791 439.481 102.681C436.783 105.571 434.086 108.75 431.389 112.218C428.884 115.686 426.572 119.347 424.453 123.2C422.333 127.053 420.696 130.81 419.54 134.471ZM554.25 166.261C551.552 168.958 548.951 171.559 546.447 174.064C543.942 176.376 541.341 178.881 538.644 181.578C535.754 184.853 532.189 186.876 527.951 187.647C523.905 188.418 519.955 188.225 516.102 187.069C512.441 185.913 509.069 183.794 505.987 180.711C503.097 177.628 501.363 173.775 500.785 169.151C499.629 160.288 499.725 151.04 501.074 141.407C502.615 131.581 505.505 122.429 509.744 113.952C513.982 105.475 519.57 98.057 526.506 91.699C533.634 85.341 542.304 80.9097 552.516 78.405C555.213 77.827 557.718 77.538 560.03 77.538C562.342 77.538 564.846 78.0197 567.544 78.983C570.819 80.139 574.095 79.9463 577.37 78.405C582.572 76.2857 587.1 76.5747 590.953 79.272C593.843 81.1987 594.999 83.5107 594.421 86.208C594.228 87.7493 594.036 89.2907 593.843 90.832C593.65 92.3733 593.361 93.9147 592.976 95.456C590.278 105.282 588.255 115.493 586.907 126.09C585.558 136.494 584.402 146.609 583.439 156.435C583.439 158.94 583.535 161.348 583.728 163.66C583.921 165.779 584.017 168.091 584.017 170.596C584.017 171.367 584.017 172.234 584.017 173.197C584.017 174.16 583.824 174.835 583.439 175.22C581.319 177.147 579.296 178.977 577.37 180.711C575.443 182.445 573.228 183.986 570.723 185.335C568.026 186.876 565.521 187.069 563.209 185.913C560.897 184.95 559.259 183.119 558.296 180.422C557.332 177.917 556.562 175.509 555.984 173.197C555.406 170.885 554.828 168.573 554.25 166.261ZM527.662 151.233C527.854 152.774 528.047 154.412 528.24 156.146C528.432 157.88 528.818 159.518 529.396 161.059C530.359 163.756 531.804 165.394 533.731 165.972C535.85 166.357 538.066 165.201 540.378 162.504C542.305 160.385 544.039 158.265 545.58 156.146C547.121 153.834 548.759 151.522 550.493 149.21C552.612 146.127 554.346 143.141 555.695 140.251C557.044 137.168 558.103 133.7 558.874 129.847C559.644 124.067 560.512 118.383 561.475 112.796C562.631 107.016 563.594 101.332 564.365 95.745C564.558 93.433 564.076 91.988 562.92 91.41C561.764 90.832 560.222 91.0247 558.296 91.988C554.442 94.1073 550.974 96.7083 547.892 99.791C541.148 106.534 536.235 114.434 533.153 123.489C530.07 132.544 528.24 141.792 527.662 151.233ZM646.712 96.034L655.671 100.369C658.753 102.103 662.125 104.319 665.786 107.016C669.446 109.713 672.722 112.122 675.612 114.241C681.392 118.865 685.727 124.549 688.617 131.292C691.507 137.843 692.277 145.646 690.929 154.701C690.351 158.362 689.195 162.022 687.461 165.683C685.919 169.344 683.896 172.812 681.392 176.087C679.08 179.17 676.382 181.867 673.3 184.179C670.217 186.684 667.038 188.514 663.763 189.67C656.056 192.367 648.831 193.234 642.088 192.271C635.344 191.5 629.179 188.514 623.592 183.312C618.39 178.495 615.211 172.908 614.055 166.55C613.091 159.999 614.055 153.063 616.945 145.742L617.812 143.719C618.582 142.563 619.353 141.407 620.124 140.251C620.894 138.902 622.05 138.421 623.592 138.806C624.94 139.191 625.615 140.058 625.615 141.407C625.615 142.563 625.711 143.719 625.904 144.875C626.096 149.499 627.156 153.352 629.083 156.435C631.009 159.325 633.514 161.541 636.597 163.082C639.679 164.623 643.147 165.683 647.001 166.261C650.854 166.646 654.9 166.55 659.139 165.972C660.102 165.779 661.065 165.394 662.029 164.816C662.992 164.238 663.955 163.756 664.919 163.371C667.423 161.637 668.387 159.229 667.809 156.146C665.304 151.329 662.221 147.38 658.561 144.297C654.9 141.022 651.143 137.746 647.29 134.471C644.592 132.352 641.895 130.329 639.198 128.402C636.5 126.475 633.996 124.452 631.684 122.333C625.133 116.36 622.05 109.713 622.436 102.392C623.014 94.878 627.06 87.942 634.574 81.584C641.702 75.226 649.12 71.0837 656.827 69.157C664.726 67.0377 672.818 67.6157 681.103 70.891C686.305 73.203 690.062 77.249 692.374 83.029C693.915 87.075 693.722 91.0247 691.796 94.878C690.832 96.4193 689.676 97.3827 688.328 97.768C687.172 98.1533 686.112 97.6717 685.149 96.323C683.029 93.0477 680.332 90.832 677.057 89.676C673.781 88.3273 670.313 87.7493 666.653 87.942C662.992 88.1347 659.428 89.0017 655.96 90.543C652.492 92.0843 649.409 93.9147 646.712 96.034ZM747.268 153.545C747.075 156.82 747.653 159.325 749.002 161.059C750.351 162.793 752.085 164.142 754.204 165.105C758.057 167.224 762.778 167.513 768.365 165.972C773.182 164.623 777.613 162.6 781.659 159.903C785.898 157.013 790.04 153.93 794.086 150.655C795.435 149.692 796.687 148.728 797.843 147.765C798.999 146.609 800.155 145.646 801.311 144.875C802.66 143.912 804.008 143.141 805.357 142.563C806.706 141.985 807.958 141.407 809.114 140.829C810.077 142.563 810.366 144.104 809.981 145.453C809.788 146.609 809.499 147.861 809.114 149.21C808.536 150.173 807.862 151.233 807.091 152.389C806.513 153.352 805.742 154.316 804.779 155.279C795.531 166.646 785.223 175.605 773.856 182.156C769.617 184.853 765.379 186.684 761.14 187.647C756.901 188.803 752.47 189.092 747.846 188.514C743.222 187.743 738.887 186.009 734.841 183.312C730.988 180.615 727.712 177.147 725.015 172.908C722.318 168.669 720.391 163.756 719.235 158.169C718.272 152.582 718.368 146.609 719.524 140.251C722.029 126.186 726.364 113.663 732.529 102.681C738.887 91.699 747.461 82.3547 758.25 74.648C760.562 73.1067 762.97 71.758 765.475 70.602C767.98 69.446 770.581 68.3863 773.278 67.423C778.287 65.4963 782.911 65.111 787.15 66.267C791.581 67.423 795.338 70.4093 798.421 75.226C804.586 84.474 804.972 95.3597 799.577 107.883C798.614 109.617 797.65 111.351 796.687 113.085C795.724 114.626 794.664 116.168 793.508 117.709C781.755 134.086 767.594 145.453 751.025 151.811C750.447 152.004 749.773 152.293 749.002 152.678C748.424 152.871 747.846 153.16 747.268 153.545ZM748.424 134.471C751.699 133.7 755.071 132.255 758.539 130.136C762.007 127.824 765.282 125.223 768.365 122.333C771.64 119.443 774.53 116.457 777.035 113.374C779.54 110.291 781.466 107.401 782.815 104.704C784.356 102.777 785.223 100.851 785.416 98.924C785.801 96.8047 785.512 95.3597 784.549 94.589C783.2 93.433 781.852 93.2403 780.503 94.011C779.347 94.589 778.095 95.2633 776.746 96.034C774.049 97.5753 771.255 99.791 768.365 102.681C765.668 105.571 762.97 108.75 760.273 112.218C757.768 115.686 755.456 119.347 753.337 123.2C751.218 127.053 749.58 130.81 748.424 134.471Z" fill="#FAFAFA"/>
</svg>
